<?xml version="1.0" encoding="utf-8"?>
<!-- Generator: Adobe Illustrator 18.0.0, SVG Export Plug-In . SVG Version: 6.00 Build 0)  -->
<!DOCTYPE svg PUBLIC "-//W3C//DTD SVG 1.1//EN" "http://www.w3.org/Graphics/SVG/1.1/DTD/svg11.dtd">
<svg version="1.1" id="Layer_1" xmlns="http://www.w3.org/2000/svg" xmlns:xlink="http://www.w3.org/1999/xlink" x="0px" y="0px"
	 viewBox="0 0 100 100" enable-background="new 0 0 100 100" xml:space="preserve">
<g>
	<g>
		<g>
			<g>
				
					<path fill="#808080" stroke="#000000" stroke-width="2" stroke-linecap="round" stroke-linejoin="round" stroke-miterlimit="10" d="
					M86.4,55.2"/>
			</g>
		</g>
		<g>
			<g>
				<g>
					<path fill="#808080" d="M69,68H29c-0.6,0-1-0.4-1-1V18.1c0-5.3,4.3-9.6,9.5-9.6s9.5,4.3,9.5,9.6v2.5c0,1.3,1.2,2.4,2.5,2.4
						c1.2,0,2.5-0.8,2.5-2.2v-2.7c0-5.5,3.9-9.7,9-9.7c5.2,0,9,3.9,9,9.3V67C70,67.6,69.6,68,69,68z M30,66h38V17.7
						c0-4.3-2.9-7.3-7-7.3c-4,0-7,3.3-7,7.7v2.7c0,2.3-2,4.2-4.5,4.2c-2.4,0-4.5-2.1-4.5-4.4v-2.5c0-4.2-3.4-7.6-7.5-7.6
						S30,13.9,30,18.1V66z"/>
				</g>
			</g>
			<g>
				<g>
					<path fill="#808080" d="M49.3,76.5c-7.1,0-14.1-1.3-20.7-3.9c-0.5-0.2-0.8-0.8-0.6-1.3c0.2-0.5,0.8-0.8,1.3-0.6
						c6.3,2.5,13,3.8,19.9,3.8c6.8,0,13.4-1.2,19.7-3.7c0.5-0.2,1.1,0,1.3,0.6c0.2,0.5-0.1,1.1-0.6,1.3
						C63.3,75.2,56.4,76.5,49.3,76.5z"/>
				</g>
			</g>
			<g>
				<g>
					<path fill="#808080" d="M54.9,61.2c-0.3,0-0.5-0.1-0.8-0.2l-4.9-3.3l-4.9,3.2c-0.6,0.4-1.4,0.2-1.9-0.3
						c-0.3-0.3-0.3-0.8-0.2-1.2l1.6-5.7L39.2,50c-0.5-0.4-0.6-1-0.4-1.5c0.2-0.6,0.7-0.9,1.3-0.9l5.9-0.2l2.1-5.5
						c0.2-0.5,0.7-0.9,1.3-0.9c0.6,0,1.1,0.4,1.3,0.9l2,5.5l5.9,0.3c0.6,0,1.1,0.4,1.2,1c0.2,0.6,0,1.1-0.5,1.5l-4.6,3.6l1.5,5.7
						c0.1,0.4,0,0.9-0.2,1.2C55.7,61,55.3,61.2,54.9,61.2z M49.2,55.6c0.3,0,0.5,0.1,0.8,0.2l3.8,2.6l-1.2-4.5
						c-0.1-0.5,0-1.1,0.5-1.4l3.6-2.9l-4.6-0.2c-0.6,0-1-0.4-1.2-0.9l-1.6-4.3l-1.6,4.3c-0.2,0.5-0.7,0.9-1.2,0.9l-4.6,0.2l3.6,2.9
						c0.4,0.3,0.6,0.9,0.5,1.4l-1.3,4.5l3.9-2.5C48.7,55.6,49,55.6,49.2,55.6z"/>
				</g>
			</g>
			<g>
				<g>
					<path fill="#808080" d="M79.1,76.8c-0.1,0-0.3,0-0.4-0.1L69,72.5c-0.4-0.2-0.6-0.5-0.6-0.9v-4.3H30.1v4.3
						c0,0.4-0.2,0.8-0.6,0.9l-9.3,3.9c-0.5,0.2-1.1,0-1.3-0.5s0-1.1,0.5-1.3l8.7-3.6v-4.6c0-0.6,0.4-1,1-1h40.3c0.6,0,1,0.4,1,1v4.6
						l9.1,4c0.5,0.2,0.7,0.8,0.5,1.3C79.8,76.6,79.5,76.8,79.1,76.8z"/>
				</g>
			</g>
			<g>
				<g>
					
						<path fill="#808080" stroke="#000000" stroke-width="2" stroke-linecap="round" stroke-linejoin="round" stroke-miterlimit="10" d="
						M29.1,74.8"/>
				</g>
			</g>
		</g>
		<g>
			<g>
				<g>
					<path fill="#808080" d="M49.5,91.6c-8.6,0-16.8-2.5-24-7.1L20,83.2c-4.5-1.4-9.1-3-12.9-5.7c-2.9-2.1-6.5-6.8-4-10.7
						c1.5-2.3,3.3-1.3,4.5-0.7c0.2,0.1,0.4,0.2,0.7,0.3c6.4,3,11.4,8.5,16.2,13.8c0.9,0.9,1.7,1.9,2.6,2.8c0.1,0.1,0.2,0.2,0.2,0.3
						c6.6,4.1,14.2,6.3,22.1,6.3c8.5,0,16.7-2.5,23.6-7.3c0.1,0,0.1-0.1,0.2-0.1c0.6-0.6,1.2-1.2,1.7-1.9C80,75,85,69.5,91.5,66.4
						c0.2-0.1,0.5-0.2,0.7-0.3c1.2-0.6,3-1.6,4.5,0.7c2.5,3.9-1.1,8.6-4,10.7c-3.9,2.8-8.6,4.4-12.8,5.7l-5.8,1.3
						c-0.1,0-0.2,0-0.3,0c-0.1,0.1-0.3,0.1-0.4,0.1C66.3,89.1,58,91.6,49.5,91.6z M5.5,67.3c-0.2,0-0.4,0.2-0.6,0.5
						c-1.8,2.8,1.5,6.6,3.5,8c3.5,2.5,8,4.1,12.2,5.4l3,0.7c-0.1-0.1-0.3-0.3-0.4-0.4c-4.7-5.1-9.6-10.4-15.6-13.3
						c-0.3-0.1-0.5-0.3-0.8-0.4C6.1,67.5,5.7,67.3,5.5,67.3z M94.4,67.3c-0.2,0-0.6,0.2-1.3,0.5c-0.2,0.1-0.5,0.3-0.8,0.4
						c-6.1,2.9-11.1,8.3-15.9,13.5c-0.1,0.1-0.1,0.1-0.2,0.2l3.1-0.7c3.9-1.2,8.5-2.8,12.1-5.4c1.9-1.4,5.3-5.1,3.4-8
						C94.8,67.5,94.7,67.3,94.4,67.3z"/>
				</g>
			</g>
		</g>
		<g>
			<g>
				<path fill="#808080" d="M61.3,25.2c-1.5,0-2.9-0.6-4-1.7c-1.1-1.1-1.7-2.7-1.7-4.3c0-0.6,0.5-1,1-1c0.6,0,1,0.5,1,1
					c0,1,0.3,2.1,1.1,2.8c0.7,0.7,1.6,1.1,2.6,1.1c0.6,0,1,0.4,1,1S61.8,25.2,61.3,25.2z"/>
			</g>
		</g>
		<g>
			<g>
				<path fill="#808080" d="M37.6,25.2c-0.6,0-1-0.4-1-1s0.4-1,1-1c1,0,1.9-0.4,2.6-1.1c0.7-0.7,1.1-1.7,1.1-2.8c0-0.6,0.4-1,1-1
					c0.5,0,1,0.4,1,1c0.1,1.6-0.5,3.2-1.7,4.3C40.5,24.6,39.1,25.2,37.6,25.2z"/>
			</g>
		</g>
		<g>
			<g>
				<path fill="#808080" d="M69,34H59c-0.6,0-1-0.4-1-1s0.4-1,1-1h10c0.6,0,1,0.4,1,1S69.6,34,69,34z"/>
			</g>
		</g>
		<g>
			<g>
				<path fill="#808080" d="M69,38h-5c-0.6,0-1-0.4-1-1s0.4-1,1-1h5c0.6,0,1,0.4,1,1S69.6,38,69,38z"/>
			</g>
		</g>
		<g>
			<g>
				<path fill="#808080" d="M36,56h-7c-0.6,0-1-0.4-1-1s0.4-1,1-1h7c0.6,0,1,0.4,1,1S36.6,56,36,56z"/>
			</g>
		</g>
		<g>
			<g>
				<path fill="#808080" d="M32,60h-3c-0.6,0-1-0.4-1-1s0.4-1,1-1h3c0.6,0,1,0.4,1,1S32.6,60,32,60z"/>
			</g>
		</g>
	</g>
	<g>
		<g>
			<path fill="#808080" d="M35,75c-0.6,0-1-0.4-1-1v-7c0-0.6,0.4-1,1-1s1,0.4,1,1v7C36,74.6,35.6,75,35,75z"/>
		</g>
	</g>
</g>
</svg>
