<?xml version="1.0" encoding="utf-8"?>
<!-- Generator: Adobe Illustrator 18.0.0, SVG Export Plug-In . SVG Version: 6.00 Build 0)  -->
<!DOCTYPE svg PUBLIC "-//W3C//DTD SVG 1.1//EN" "http://www.w3.org/Graphics/SVG/1.1/DTD/svg11.dtd">
<svg version="1.1" id="Layer_1" xmlns="http://www.w3.org/2000/svg" xmlns:xlink="http://www.w3.org/1999/xlink" x="0px" y="0px"
	 viewBox="0 0 100 100" enable-background="new 0 0 100 100" xml:space="preserve">
<g>
	<g>
		<g>
			<g>
				<path fill="#808080" d="M62.5,47.6c-0.1,0-0.2,0-0.3,0c-1.8-0.5-3.1-2.2-3.1-4c0-2,1.3-3.6,3.1-4.1L61.6,36h-8.6
					c-1,0-1.7,0.8-1.7,1.9c0,0.6-0.4,1-1,1s-1-0.4-1-1c0-2.1,1.7-3.9,3.7-3.9h9.4c0.5,0,0.9,0.3,1,0.8l0.9,5.2
					c0.1,0.3,0,0.6-0.2,0.8c-0.2,0.2-0.5,0.4-0.8,0.4c-1.2,0-2.2,1-2.2,2.3c0,1,0.6,1.8,1.6,2.1c0.5,0.2,0.8,0.7,0.7,1.2
					C63.3,47.3,62.9,47.6,62.5,47.6z"/>
			</g>
		</g>
		<g>
			<g>
				<path fill="#808080" d="M38.8,46.9c-0.3,0-0.6-0.1-0.8-0.4c-0.4-0.4-0.3-1.1,0.1-1.4c0.5-0.4,0.8-1,0.8-1.7c0-1.3-1-2.3-2.2-2.3
					c-0.3,0-0.6-0.1-0.8-0.4c-0.2-0.2-0.3-0.5-0.2-0.8l0.9-5.2c0.1-0.5,0.5-0.8,1-0.8H47c2.1,0,3.7,1.7,3.7,3.9c0,0.6-0.4,1-1,1
					s-1-0.4-1-1c0-1-0.8-1.9-1.7-1.9h-8.6l-0.6,3.4c1.8,0.5,3.1,2.2,3.1,4.1c0,1.2-0.5,2.4-1.5,3.2C39.2,46.8,39,46.9,38.8,46.9z"/>
			</g>
		</g>
		<g>
			<g>
				<path fill="#808080" d="M38.5,47.1c-0.3,0-0.5-0.1-0.7-0.3c-0.4-0.4-0.3-1,0.1-1.4l3.3-3c0.4-0.4,1-0.3,1.4,0.1
					c0.4,0.4,0.3,1-0.1,1.4l-3.3,3C39,47,38.7,47.1,38.5,47.1z"/>
			</g>
		</g>
		<g>
			<g>
				<path fill="#808080" d="M37.1,48.4c-0.3,0-0.5-0.1-0.7-0.3c-0.4-0.4-0.3-1,0.1-1.4l1.4-1.3c0.4-0.4,1-0.3,1.4,0.1
					c0.4,0.4,0.3,1-0.1,1.4l-1.4,1.3C37.6,48.3,37.3,48.4,37.1,48.4z"/>
			</g>
		</g>
		<g>
			<g>
				<path fill="#808080" d="M53.5,81.1h-6.8c-1,0-2-0.5-2.6-1.2l-1.9-2.3c-0.6-0.7-0.8-1.6-0.7-2.5l0.9-4.9l-6.3-22.5
					c-0.1-0.5,0.2-1.1,0.7-1.2c0.5-0.1,1.1,0.2,1.2,0.7l6.3,22.8c0.1,0.2,0,0.5-0.1,0.7l-0.9,4.7c0,0.3,0.1,0.7,0.3,1l1.9,2.3
					c0.3,0.3,0.6,0.5,1,0.5h6.8c0.4,0,0.8-0.2,1-0.5l1.8-2.2c0.2-0.3,0.3-0.7,0.3-1l-0.9-5L55.6,70c-0.1-0.2-0.1-0.4,0-0.6l5.7-21.8
					l-4.1-3.7c-0.4-0.4-0.4-1-0.1-1.4c0.4-0.4,1-0.4,1.4-0.1l4.5,4.1c0.3,0.3,0.4,0.6,0.3,1l-5.8,22.1l0.1,0.2c0,0.1,0,0.1,0,0.2
					l0.9,5.1c0.1,1-0.1,1.9-0.7,2.6L56,79.9C55.4,80.6,54.5,81.1,53.5,81.1z"/>
			</g>
		</g>
		<g>
			<g>
				<path fill="#808080" d="M76.2,41.3H64.1c-0.9,0-1.7-0.7-1.7-1.6l-1-4.2c0-0.1,0-0.1,0-0.2c0-1,0.8-1.8,1.8-1.8h12l1.9-1.5
					l10.6-9.8c0.2-0.2,0.4-0.3,0.6-0.4l7.8-2.8c0.6-0.2,1.4-0.1,1.8,0.4c0.8,0.8,1.1,1.9,0.9,3c-0.2,1.1-1,2-2,2.4l-4.1,1.6l-9.3,10
					c-0.1,0.1-0.2,0.2-0.2,0.2l-5.8,4.3C76.9,41.1,76.5,41.3,76.2,41.3z M64.3,39.3h11.8l5.7-4.2l9.3-10c0.2-0.2,0.4-0.3,0.6-0.4
					l4.1-1.6c0.4-0.2,0.7-0.5,0.8-0.9c0.1-0.4,0-0.8-0.3-1.1l-7.6,2.8l-10.5,9.8c0,0-0.1,0.1-0.1,0.1l-1.9,1.5
					c-0.3,0.2-0.7,0.4-1.1,0.4H63.4L64.3,39.3z"/>
			</g>
		</g>
		<g>
			<g>
				<path fill="#808080" d="M36,41.3H23.9c-0.4,0-0.7-0.1-1-0.3l-5.8-4.3c-0.1-0.1-0.2-0.1-0.2-0.2l-9.3-10l-4.1-1.6
					c-1-0.4-1.8-1.3-2-2.4c-0.2-1.1,0.1-2.2,0.9-3C2.8,19,3.5,18.8,4.1,19l7.8,2.8c0.2,0.1,0.4,0.2,0.6,0.4L23.1,32l1.9,1.5h12
					c1,0,1.8,0.8,1.8,1.8c0,0.1,0,0.2,0,0.2l-1,4.2C37.7,40.6,36.9,41.3,36,41.3z M24,39.3h11.8l0.9-3.8H24.9
					c-0.4,0-0.8-0.1-1.1-0.4l-1.9-1.5c0,0-0.1-0.1-0.1-0.1l-10.6-9.8L3.6,21c-0.2,0.3-0.3,0.7-0.3,1.1c0.1,0.4,0.4,0.8,0.8,0.9
					l4.1,1.6C8.5,24.7,8.8,24.8,9,25l9.3,10.1L24,39.3z"/>
			</g>
		</g>
		<g>
			<g>
				<path fill="#808080" d="M63,50.2c-0.6,0-1-0.4-1-1s0.4-1,1-1c1.8,0,3.2-1.7,3.8-3.2H60c-0.6,0-1-0.4-1-1s0.4-1,1-1h8
					c0.6,0,1,0.4,1,1C69,46.5,66.5,50.2,63,50.2z"/>
			</g>
		</g>
		<g>
			<g>
				<path fill="#808080" d="M36.6,50.2c-3.5,0-6.3-2.7-6.3-6.2c0-0.6,0.4-1,1-1H40c0.6,0,1,0.4,1,1s-0.4,1-1,1h-7.6
					c0.5,1.8,2.1,3.2,4.2,3.2c0.6,0,1,0.4,1,1S37.1,50.2,36.6,50.2z"/>
			</g>
		</g>
	</g>
	<g>
		<g>
			<path fill="#808080" d="M48,52h-9c-0.6,0-1-0.4-1-1c0-0.6,0.4-1,1-1h9c0.6,0,1,0.4,1,1C49,51.6,48.6,52,48,52z"/>
		</g>
	</g>
	<g>
		<g>
			<path fill="#808080" d="M44,56h-4c-0.6,0-1-0.4-1-1s0.4-1,1-1h4c0.6,0,1,0.4,1,1S44.6,56,44,56z"/>
		</g>
	</g>
	<g>
		<g>
			<path fill="#808080" d="M58,62h-3c-0.6,0-1-0.4-1-1s0.4-1,1-1h3c0.6,0,1,0.4,1,1S58.6,62,58,62z"/>
		</g>
	</g>
	<g>
		<g>
			<path fill="#808080" d="M52,62h-2c-0.6,0-1-0.4-1-1s0.4-1,1-1h2c0.6,0,1,0.4,1,1S52.6,62,52,62z"/>
		</g>
	</g>
	<g>
		<g>
			<path fill="#808080" d="M57,66h-5c-0.6,0-1-0.4-1-1s0.4-1,1-1h5c0.6,0,1,0.4,1,1S57.6,66,57,66z"/>
		</g>
	</g>
</g>
</svg>
