<?xml version="1.0" encoding="utf-8"?>
<!-- Generator: Adobe Illustrator 18.0.0, SVG Export Plug-In . SVG Version: 6.00 Build 0)  -->
<!DOCTYPE svg PUBLIC "-//W3C//DTD SVG 1.1//EN" "http://www.w3.org/Graphics/SVG/1.1/DTD/svg11.dtd">
<svg version="1.1" id="Layer_1" xmlns="http://www.w3.org/2000/svg" xmlns:xlink="http://www.w3.org/1999/xlink" x="0px" y="0px"
	 viewBox="0 0 100 100" enable-background="new 0 0 100 100" xml:space="preserve">
<g>
	<g>
		<g>
			<g>
				<g>
					<g>
						<g>
							<path fill="#808080" d="M91.1,32.4c-0.2,0-0.4-0.1-0.5-0.2c-0.4-0.3-0.5-0.9-0.2-1.3c4.3-6.3,3.6-14.8-1.8-20.2
								c-5.2-5.2-13.1-6.1-19.4-2.4c-0.5,0.3-1,0.1-1.3-0.3c-0.3-0.5-0.1-1,0.3-1.3c7-4.2,15.9-3.1,21.7,2.6
								c6.1,6.1,6.9,15.6,2.1,22.6C91.7,32.2,91.4,32.4,91.1,32.4z"/>
						</g>
					</g>
				</g>
				<g>
					<g>
						<g>
							<path fill="#808080" d="M77.3,39.6c-0.8,0-1.5-0.1-2.3-0.2c-0.2,0-0.4-0.1-0.5-0.3L60,24.8c-0.1-0.1-0.2-0.3-0.3-0.5
								c-0.6-4.8,0.7-9.7,3.8-13.5c0.3-0.4,0.9-0.5,1.3-0.1c0.4,0.3,0.5,0.9,0.1,1.3c-2.6,3.3-3.9,7.5-3.4,11.7l14,14
								c4.1,0.5,8.3-0.7,11.6-3.3c0.4-0.3,1-0.3,1.3,0.2c0.3,0.4,0.3,1-0.2,1.3C85.2,38.3,81.3,39.6,77.3,39.6z"/>
						</g>
					</g>
				</g>
				<g>
					<g>
						<g>
							<path fill="#808080" d="M67.7,9.1c-0.3,0-0.6-0.1-0.8-0.4c-0.3-0.4-0.2-1,0.2-1.3c0.3-0.2,0.6-0.4,1-0.6
								c0.5-0.3,1-0.1,1.3,0.3c0.3,0.5,0.1,1-0.3,1.3c-0.3,0.2-0.6,0.4-0.9,0.6C68.1,9,67.9,9.1,67.7,9.1z"/>
						</g>
					</g>
				</g>
			</g>
			<g>
				<g>
					<g>
						<path fill="#808080" d="M51.2,61.4c-0.2,0-0.5-0.1-0.7-0.3L38,48.7c-0.4-0.4-0.4-1,0-1.3c0.4-0.4,1-0.4,1.3,0l12.5,12.5
							c0.4,0.4,0.4,1,0,1.3C51.7,61.3,51.4,61.4,51.2,61.4z"/>
					</g>
				</g>
			</g>
			<g>
				<g>
					<g>
						<path fill="#808080" d="M37.8,72.4c-1.2,0-2.4-0.5-3.3-1.4L28.3,65c-1.8-1.8-1.9-4.6-0.2-6.5l10-11.1c0.4-0.4,1-0.4,1.3-0.1
							c0.4,0.4,0.4,1,0.1,1.3l-10,11.1c-1,1.1-1,2.8,0.1,3.9l6.1,6.1c1.1,1.1,2.8,1.1,3.9,0.1l11.1-10c0.4-0.4,1-0.3,1.3,0.1
							c0.4,0.4,0.3,1-0.1,1.3l-11.1,10C40,72,38.9,72.4,37.8,72.4z"/>
					</g>
				</g>
			</g>
			<g>
				<g>
					<g>
						<path fill="#808080" d="M61.4,52c-0.2,0-0.5-0.1-0.7-0.3L47.4,38.4c-0.4-0.4-0.4-0.9,0-1.3L60,23.4c0.4-0.4,1-0.4,1.3-0.1
							c0.4,0.4,0.4,1,0.1,1.3l-11.9,13l12,12l13-11.9c0.4-0.4,1-0.3,1.3,0.1c0.4,0.4,0.3,1-0.1,1.3L62.1,51.8
							C61.9,51.9,61.7,52,61.4,52z"/>
					</g>
				</g>
			</g>
			<g>
				<g>
					<g>
						<path fill="#808080" d="M75.1,39.5c-0.2,0-0.5-0.1-0.7-0.3L60,24.8c-0.4-0.4-0.4-1,0-1.3c0.4-0.4,1-0.4,1.3,0l14.4,14.4
							c0.4,0.4,0.4,1,0,1.3C75.6,39.4,75.4,39.5,75.1,39.5z"/>
					</g>
				</g>
			</g>
			<g>
				<g>
					<g>
						<path fill="#808080" d="M54.2,62.9c-1,0-2.1-0.4-2.8-1.2L51,61.5c-0.4-0.4-0.4-1,0-1.3c0.4-0.4,1-0.4,1.3,0l0.3,0.3
							c0.8,0.8,2.2,0.8,3,0l5.5-5.5c0.8-0.8,0.8-2.2,0-3L47.5,38.2c-0.8-0.8-2.2-0.8-3,0L39,43.7c-0.4,0.4-0.6,0.9-0.6,1.5
							c0,0.6,0.2,1.1,0.6,1.5l0.3,0.3c0.4,0.4,0.4,1,0,1.3c-0.4,0.4-1,0.4-1.3,0l-0.3-0.3c-0.8-0.8-1.2-1.8-1.2-2.8s0.4-2.1,1.2-2.8
							l5.5-5.5c1.6-1.6,4.1-1.6,5.7,0l13.7,13.7c1.6,1.6,1.6,4.1,0,5.7L57,61.8C56.2,62.5,55.2,62.9,54.2,62.9z"/>
					</g>
				</g>
			</g>
			<g>
				<g>
					<g>
						<path fill="#808080" d="M51.5,61.7c-0.2,0-0.5-0.1-0.7-0.3L37.7,48.4c-0.4-0.4-0.4-1,0-1.3c0.4-0.4,1-0.4,1.3,0l13.1,13.1
							c0.4,0.4,0.4,1,0,1.3C52,61.7,51.7,61.7,51.5,61.7z"/>
					</g>
				</g>
			</g>
			<g>
				<g>
					<g>
						<path fill="#808080" d="M90.3,37.1c-0.7,0-1.5-0.3-2-0.8L63.1,11c-0.5-0.5-0.8-1.2-0.8-2c0-0.7,0.3-1.5,0.8-2l0.6-0.6
							c1.1-1.1,2.9-1.1,4,0l25.2,25.2c0.5,0.5,0.8,1.2,0.8,2c0,0.8-0.3,1.5-0.8,2l-0.6,0.6C91.8,36.8,91.1,37.1,90.3,37.1z
							 M65.7,7.6c-0.2,0-0.5,0.1-0.6,0.3l-0.6,0.6c-0.2,0.2-0.3,0.4-0.3,0.6c0,0.2,0.1,0.5,0.3,0.6l25.2,25.2c0.3,0.3,0.9,0.3,1.3,0
							l0.6-0.6c0.2-0.2,0.3-0.4,0.3-0.6c0-0.2-0.1-0.5-0.3-0.6L66.3,7.9C66.1,7.7,65.9,7.6,65.7,7.6z"/>
					</g>
				</g>
			</g>
		</g>
		<g>
			<g>
				<g>
					<path fill="#808080" d="M63.1,81.7h-4.5c-0.5,0-1-0.4-1-1V65.1c0-0.5,0.4-1,1-1h4.5c0.5,0,1,0.4,1,1v15.6
						C64,81.3,63.6,81.7,63.1,81.7z M59.5,79.8h2.6V66.1h-2.6V79.8z"/>
				</g>
			</g>
		</g>
		<g>
			<g>
				<g>
					<path fill="#808080" d="M60.4,66c-2.3,0-4.4-1.3-5.3-3.4c-0.2-0.5,0-1,0.5-1.3c0.5-0.2,1,0,1.3,0.5c0.6,1.4,2,2.3,3.6,2.3
						c2.2,0,3.9-1.8,3.9-3.9c0-1.8-1.2-3.3-2.9-3.8c-0.5-0.1-0.8-0.7-0.7-1.2c0.1-0.5,0.7-0.8,1.2-0.7c2.5,0.7,4.3,3,4.3,5.6
						C66.2,63.4,63.6,66,60.4,66z"/>
				</g>
			</g>
		</g>
		<g>
			<g>
				<g>
					<path fill="#808080" d="M76.3,95.9H45.4c-1.6,0-2.9-1.3-2.9-2.9V83c0-1.6,1.3-2.9,2.9-2.9h30.9c1.6,0,2.9,1.3,2.9,2.9v10
						C79.2,94.6,77.9,95.9,76.3,95.9z M45.4,82c-0.5,0-1,0.4-1,1v10c0,0.5,0.4,1,1,1h30.9c0.5,0,1-0.4,1-1V83c0-0.5-0.4-1-1-1H45.4z
						"/>
				</g>
			</g>
		</g>
		<g>
			<g>
				<g>
					<path fill="#808080" d="M5.7,94.8c-0.2,0-0.5-0.1-0.7-0.3c-0.4-0.4-0.4-1,0-1.3l5-5c0.9-0.9,2.6-0.9,3.5,0l3.2,3.2
						c0.2,0.2,0.6,0.2,0.8,0l1.8-1.8c0.2-0.2,0.2-0.6,0-0.8l-7.3-7.3c-1-1-1-2.5,0-3.5l3.2-3.2c0.9-0.9,2.6-0.9,3.5,0l7.3,7.3
						c0.2,0.2,0.6,0.2,0.8,0l3.2-3.2c0.1-0.1,0.2-0.3,0.2-0.4c0-0.2-0.1-0.3-0.2-0.4L27,74.7c-1-1-1-2.5,0-3.5l3.6-3.6
						c0.4-0.4,1-0.4,1.3,0c0.4,0.4,0.4,1,0,1.3l-3.6,3.6c-0.2,0.2-0.2,0.6,0,0.8l3.2,3.2c0.5,0.5,0.7,1.1,0.7,1.8
						c0,0.7-0.3,1.3-0.7,1.8l-3.2,3.2c-1,1-2.5,1-3.5,0l-7.3-7.3c-0.2-0.2-0.6-0.2-0.8,0l-3.2,3.2c-0.2,0.2-0.2,0.6,0,0.8l7.3,7.3
						c1,1,1,2.5,0,3.5l-1.8,1.8c-0.9,0.9-2.6,0.9-3.5,0l-3.2-3.2c-0.2-0.2-0.6-0.2-0.8,0l-5,5C6.2,94.7,5.9,94.8,5.7,94.8z"/>
				</g>
			</g>
		</g>
		<g>
			<g>
				<g>
					<g>
						<circle fill="#808080" cx="63.9" cy="21.1" r="1"/>
					</g>
				</g>
			</g>
			<g>
				<g>
					<g>
						<circle fill="#808080" cx="66.6" cy="23.8" r="1"/>
					</g>
				</g>
			</g>
			<g>
				<g>
					<g>
						<circle fill="#808080" cx="69.3" cy="26.5" r="1"/>
					</g>
				</g>
			</g>
			<g>
				<g>
					<g>
						<circle fill="#808080" cx="72" cy="29.2" r="1"/>
					</g>
				</g>
			</g>
			<g>
				<g>
					<g>
						<circle fill="#808080" cx="74.7" cy="31.9" r="1"/>
					</g>
				</g>
			</g>
			<g>
				<g>
					<g>
						<circle fill="#808080" cx="77.4" cy="34.6" r="1"/>
					</g>
				</g>
			</g>
		</g>
		<g>
			<g>
				<g>
					<g>
						<circle fill="#808080" cx="80" cy="8.6" r="1"/>
					</g>
				</g>
			</g>
			<g>
				<g>
					<g>
						<circle fill="#808080" cx="82.7" cy="11.3" r="1"/>
					</g>
				</g>
			</g>
			<g>
				<g>
					<g>
						<circle fill="#808080" cx="85.4" cy="14" r="1"/>
					</g>
				</g>
			</g>
			<g>
				<g>
					<g>
						<circle fill="#808080" cx="88.1" cy="16.7" r="1"/>
					</g>
				</g>
			</g>
		</g>
		<g>
			<g>
				<g>
					<g>
						<circle fill="#808080" cx="66.4" cy="17.9" r="1"/>
					</g>
				</g>
			</g>
			<g>
				<g>
					<g>
						<circle fill="#808080" cx="69.1" cy="20.6" r="1"/>
					</g>
				</g>
			</g>
			<g>
				<g>
					<g>
						<circle fill="#808080" cx="71.8" cy="23.3" r="1"/>
					</g>
				</g>
			</g>
			<g>
				<g>
					<g>
						<circle fill="#808080" cx="74.5" cy="26" r="1"/>
					</g>
				</g>
			</g>
			<g>
				<g>
					<g>
						<circle fill="#808080" cx="77.2" cy="28.7" r="1"/>
					</g>
				</g>
			</g>
			<g>
				<g>
					<g>
						<circle fill="#808080" cx="79.9" cy="31.4" r="1"/>
					</g>
				</g>
			</g>
			<g>
				<g>
					<g>
						<circle fill="#808080" cx="82.6" cy="34.1" r="1"/>
					</g>
				</g>
			</g>
		</g>
		<g>
			<g>
				<g>
					<circle fill="#808080" cx="74" cy="8.3" r="1"/>
				</g>
			</g>
		</g>
		<g>
			<g>
				<g>
					<circle fill="#808080" cx="76.7" cy="11" r="1"/>
				</g>
			</g>
		</g>
		<g>
			<g>
				<g>
					<circle fill="#808080" cx="79.4" cy="13.7" r="1"/>
				</g>
			</g>
		</g>
		<g>
			<g>
				<g>
					<circle fill="#808080" cx="82.1" cy="16.4" r="1"/>
				</g>
			</g>
		</g>
		<g>
			<g>
				<g>
					<circle fill="#808080" cx="84.8" cy="19.1" r="1"/>
				</g>
			</g>
		</g>
		<g>
			<g>
				<g>
					<circle fill="#808080" cx="87.5" cy="21.8" r="1"/>
				</g>
			</g>
		</g>
		<g>
			<g>
				<g>
					<circle fill="#808080" cx="90.2" cy="24.5" r="1"/>
				</g>
			</g>
		</g>
	</g>
	<g>
		<g>
			<g>
				<path fill="#808080" d="M64.6,48.4c-0.3,0-0.5-0.1-0.7-0.3l-6.4-6.4c-0.4-0.4-0.4-1,0-1.4s1-0.4,1.4,0l6.4,6.4
					c0.4,0.4,0.4,1,0,1.4C65.1,48.3,64.8,48.4,64.6,48.4z"/>
			</g>
		</g>
		<g>
			<g>
				<path fill="#808080" d="M67.8,45.2c-0.3,0-0.5-0.1-0.7-0.3l-3.5-3.5c-0.4-0.4-0.4-1,0-1.4s1-0.4,1.4,0l3.5,3.5
					c0.4,0.4,0.4,1,0,1.4C68.3,45.1,68.1,45.2,67.8,45.2z"/>
			</g>
		</g>
	</g>
	<g>
		<g>
			<path fill="#808080" d="M52,87h-8c-0.6,0-1-0.4-1-1s0.4-1,1-1h8c0.6,0,1,0.4,1,1S52.6,87,52,87z"/>
		</g>
	</g>
	<g>
		<g>
			<path fill="#808080" d="M47,91h-3c-0.6,0-1-0.4-1-1s0.4-1,1-1h3c0.6,0,1,0.4,1,1S47.6,91,47,91z"/>
		</g>
	</g>
	<g>
		<g>
			<path fill="#808080" d="M77,89h-6c-0.6,0-1-0.4-1-1s0.4-1,1-1h6c0.6,0,1,0.4,1,1S77.6,89,77,89z"/>
		</g>
	</g>
</g>
</svg>
