<?xml version="1.0" encoding="utf-8"?>
<!-- Generator: Adobe Illustrator 18.0.0, SVG Export Plug-In . SVG Version: 6.00 Build 0)  -->
<!DOCTYPE svg PUBLIC "-//W3C//DTD SVG 1.1//EN" "http://www.w3.org/Graphics/SVG/1.1/DTD/svg11.dtd">
<svg version="1.1" id="Layer_1" xmlns="http://www.w3.org/2000/svg" xmlns:xlink="http://www.w3.org/1999/xlink" x="0px" y="0px"
	 viewBox="0 0 100 100" enable-background="new 0 0 100 100" xml:space="preserve">
<g>
	<g>
		<g>
			<g>
				<g>
					<path fill="#808080" d="M48.9,37.1c-0.6,0-1-0.4-1-1v-2.6c0-2.9-2.4-5.3-5.3-5.3s-5.3,2.4-5.3,5.3v2c0,0.6-0.4,1-1,1
						s-1-0.4-1-1v-2c0-4.1,3.3-7.3,7.3-7.3c4.1,0,7.3,3.3,7.3,7.3v2.6C49.9,36.6,49.4,37.1,48.9,37.1z"/>
				</g>
			</g>
			<g>
				<g>
					<path fill="#808080" d="M42.5,57.2c-4,0-7.3-3.3-7.3-7.3c0-0.6,0.4-1,1-1s1,0.4,1,1c0,2.9,2.4,5.3,5.3,5.3s5.3-2.4,5.3-5.3V48
						c0-0.6,0.4-1,1-1s1,0.4,1,1v1.9C49.9,53.9,46.6,57.2,42.5,57.2z"/>
				</g>
			</g>
			<g>
				<g>
					<path fill="#808080" d="M55.2,57.2c-4,0-7.3-3.3-7.3-7.3V48c0-0.6,0.4-1,1-1s1,0.4,1,1v1.9c0,2.9,2.4,5.3,5.3,5.3
						s5.3-2.4,5.3-5.3V33.5c0-2.9-2.4-5.3-5.3-5.3s-5.3,2.4-5.3,5.3v2.6c0,0.6-0.4,1-1,1s-1-0.4-1-1v-2.6c0-4.1,3.3-7.3,7.3-7.3
						c4.1,0,7.3,3.3,7.3,7.3v16.4C62.5,53.9,59.2,57.2,55.2,57.2z"/>
				</g>
			</g>
			<g>
				<g>
					<path fill="#808080" d="M58.1,84.2H39.6c-9.4,0-17.1-7.7-17.1-17.1V18.5c0-4.1,3.3-7.3,7.3-7.3c4.1,0,7.3,3.3,7.3,7.3v15.3
						c0,0.6-0.4,1-1,1s-1-0.4-1-1V18.5c0-2.9-2.4-5.3-5.3-5.3s-5.3,2.4-5.3,5.3v48.6c0,8.3,6.8,15.1,15.1,15.1h18.5
						c8.3,0,15.1-6.8,15.1-15.1V10.5c0-2.9-2.4-5.3-5.3-5.3s-5.3,2.4-5.3,5.3v39.4c0,0.6-0.4,1-1,1s-1-0.4-1-1V10.5
						c0-4.1,3.3-7.3,7.3-7.3c4.1,0,7.3,3.3,7.3,7.3v56.7C75.2,76.5,67.5,84.2,58.1,84.2z"/>
				</g>
			</g>
			<g>
				<g>
					
						<path fill="#808080" stroke="#000000" stroke-width="2" stroke-linecap="round" stroke-linejoin="round" stroke-miterlimit="10" d="
						M74.5,64.6"/>
				</g>
			</g>
			<g>
				<g>
					<g>
						<path fill="#808080" d="M46.1,49.4h-9.6c-0.6,0-1-0.4-1-1s0.4-1,1-1h9.6c2.9,0,5.3-2.4,5.3-5.3s-2.4-5.3-5.3-5.3H30.4
							c-0.6,0-1-0.4-1-1s0.4-1,1-1h15.7c4.1,0,7.3,3.3,7.3,7.3S50.1,49.4,46.1,49.4z"/>
					</g>
				</g>
				<g>
					<g>
						<path fill="#808080" d="M36.2,62.7c-0.6,0-1-0.4-1-1V48.7c0-0.6,0.4-1,1-1s1,0.4,1,1v12.9C37.2,62.2,36.8,62.7,36.2,62.7z"/>
					</g>
				</g>
				<g>
					<g>
						<path fill="#808080" d="M23.5,68.1c-0.6,0-1-0.4-1-1V42c0-4.1,3.3-7.3,7.3-7.3c0.6,0,1,0.4,1,1s-0.4,1-1,1
							c-2.9,0-5.3,2.4-5.3,5.3v25.1C24.5,67.7,24.1,68.1,23.5,68.1z"/>
					</g>
				</g>
			</g>
			<g>
				<g>
					<path fill="#808080" d="M45.9,73.1c-0.6,0-1-0.4-1-1c0-4.9-4-8.8-8.8-8.8c-0.6,0-1-0.4-1-1s0.4-1,1-1c6,0,10.8,4.9,10.8,10.8
						C46.9,72.7,46.5,73.1,45.9,73.1z"/>
				</g>
			</g>
			<g>
				<g>
					<path fill="#808080" d="M73,19h-5c-0.6,0-1-0.4-1-1s0.4-1,1-1h5c0.6,0,1,0.4,1,1S73.6,19,73,19z"/>
				</g>
			</g>
			<g>
				<g>
					<path fill="#808080" d="M65,29h-3c-0.6,0-1-0.4-1-1s0.4-1,1-1h3c0.6,0,1,0.4,1,1S65.6,29,65,29z"/>
				</g>
			</g>
			<g>
				<g>
					<path fill="#808080" d="M35,23h-4c-0.6,0-1-0.4-1-1s0.4-1,1-1h4c0.6,0,1,0.4,1,1S35.6,23,35,23z"/>
				</g>
			</g>
			<g>
				<g>
					<path fill="#808080" d="M30,30h-6c-0.6,0-1-0.4-1-1s0.4-1,1-1h6c0.6,0,1,0.4,1,1S30.6,30,30,30z"/>
				</g>
			</g>
		</g>
		<g>
			<g>
				<path fill="#808080" d="M71.3,96.9H28.5c-3.6,0-6.5-2.9-6.5-6.5v-1.7c0-3.6,2.9-6.5,6.5-6.5h42.8c3.6,0,6.5,2.9,6.5,6.5v1.7
					C77.8,94,74.9,96.9,71.3,96.9z M28.5,84.2c-2.5,0-4.5,2-4.5,4.5v1.7c0,2.5,2,4.5,4.5,4.5h42.8c2.5,0,4.5-2,4.5-4.5v-1.7
					c0-2.5-2-4.5-4.5-4.5H28.5z"/>
			</g>
		</g>
		<g>
			<g>
				<path fill="#808080" d="M49.9,93.2c-2,0-3.5-1.6-3.5-3.5s1.6-3.5,3.5-3.5s3.5,1.6,3.5,3.5S51.9,93.2,49.9,93.2z M49.9,88.1
					c-0.9,0-1.5,0.7-1.5,1.5s0.7,1.5,1.5,1.5c0.9,0,1.5-0.7,1.5-1.5S50.8,88.1,49.9,88.1z"/>
			</g>
		</g>
		<g>
			<g>
				<path fill="#808080" d="M63.7,93.2c-2,0-3.5-1.6-3.5-3.5s1.6-3.5,3.5-3.5s3.5,1.6,3.5,3.5S65.7,93.2,63.7,93.2z M63.7,88.1
					c-0.9,0-1.5,0.7-1.5,1.5s0.7,1.5,1.5,1.5s1.5-0.7,1.5-1.5S64.6,88.1,63.7,88.1z"/>
			</g>
		</g>
		<g>
			<g>
				<path fill="#808080" d="M35,93.2c-2,0-3.5-1.6-3.5-3.5s1.6-3.5,3.5-3.5s3.5,1.6,3.5,3.5S36.9,93.2,35,93.2z M35,88.1
					c-0.9,0-1.5,0.7-1.5,1.5s0.7,1.5,1.5,1.5s1.5-0.7,1.5-1.5S35.8,88.1,35,88.1z"/>
			</g>
		</g>
		<g>
			<g>
				
					<path fill="#808080" stroke="#000000" stroke-width="2" stroke-linecap="round" stroke-linejoin="round" stroke-miterlimit="10" d="
					M79.1,68"/>
			</g>
		</g>
		<g>
			<g>
				<path fill="#808080" d="M76.1,94.1c-0.4,0-0.8-0.2-0.9-0.6c-0.2-0.5,0-1.1,0.5-1.3l5.9-2.5c0,0,0,0,0-0.1c0-0.1-0.1-0.1-0.1-0.2
					L75.7,87c-0.5-0.2-0.7-0.8-0.5-1.3c0.2-0.5,0.8-0.7,1.3-0.5l5.9,2.5c0.8,0.4,1.2,1.1,1.2,2c0,0.8-0.4,1.6-1.2,1.9L76.5,94
					C76.3,94,76.2,94.1,76.1,94.1z"/>
			</g>
		</g>
		<g>
			<g>
				<path fill="#808080" d="M23.9,94.1c-0.1,0-0.3,0-0.4-0.1l-5.9-2.5c-0.8-0.4-1.2-1.1-1.2-2c0-0.8,0.4-1.6,1.2-1.9l5.9-2.5
					c0.5-0.2,1.1,0,1.3,0.5c0.2,0.5,0,1.1-0.5,1.3l-5.9,2.5c0,0,0,0,0,0.1c0,0.1,0.1,0.1,0.1,0.2l5.8,2.4c0.5,0.2,0.7,0.8,0.5,1.3
					C24.7,93.8,24.3,94.1,23.9,94.1z"/>
			</g>
		</g>
	</g>
	<g>
		<g>
			<path fill="#808080" d="M74,62H61c-0.6,0-1-0.4-1-1s0.4-1,1-1h13c0.6,0,1,0.4,1,1S74.6,62,74,62z"/>
		</g>
	</g>
	<g>
		<g>
			<path fill="#808080" d="M74,67h-7c-0.6,0-1-0.4-1-1s0.4-1,1-1h7c0.6,0,1,0.4,1,1S74.6,67,74,67z"/>
		</g>
	</g>
</g>
</svg>
