<?xml version="1.0" encoding="utf-8"?>
<!-- Generator: Adobe Illustrator 18.0.0, SVG Export Plug-In . SVG Version: 6.00 Build 0)  -->
<!DOCTYPE svg PUBLIC "-//W3C//DTD SVG 1.1//EN" "http://www.w3.org/Graphics/SVG/1.1/DTD/svg11.dtd">
<svg version="1.1" id="Layer_1" xmlns="http://www.w3.org/2000/svg" xmlns:xlink="http://www.w3.org/1999/xlink" x="0px" y="0px"
	 viewBox="0 0 100 100" enable-background="new 0 0 100 100" xml:space="preserve">
<g>
	<g>
		<g>
			<g>
				<path fill="#808080" d="M62.2,35.1c-0.6,0-1-0.4-1-1c0-6-5.3-11.3-11.3-11.3S38.6,28,38.6,34.1c0,0.6-0.4,1-1,1s-1-0.4-1-1
					c0-7.1,6.2-13.3,13.3-13.3S63.2,27,63.2,34.1C63.2,34.6,62.8,35.1,62.2,35.1z"/>
			</g>
		</g>
		<g>
			<g>
				<path fill="#808080" d="M65,39H36c-0.6,0-1-0.4-1-1s0.4-1,1-1h29c0.6,0,1,0.4,1,1S65.6,39,65,39z"/>
			</g>
		</g>
		<g>
			<g>
				
					<path fill="#808080" stroke="#000000" stroke-width="2" stroke-linecap="round" stroke-linejoin="round" stroke-miterlimit="10" d="
					M37.7,37.6"/>
			</g>
		</g>
		<g>
			<g>
				<path fill="#808080" d="M64,36H37c-0.6,0-1-0.4-1-1s0.4-1,1-1h27c0.6,0,1,0.4,1,1S64.6,36,64,36z"/>
			</g>
		</g>
		<g>
			<g>
				
					<path fill="#808080" stroke="#000000" stroke-width="2" stroke-linecap="round" stroke-linejoin="round" stroke-miterlimit="10" d="
					M62.7,37.6"/>
			</g>
		</g>
		<g>
			<g>
				
					<path fill="#808080" stroke="#000000" stroke-width="2" stroke-linecap="round" stroke-linejoin="round" stroke-miterlimit="10" d="
					M62.2,34.1"/>
			</g>
		</g>
		<g>
			<g>
				<path fill="#808080" d="M62.4,45.6c-0.6,0-1-0.4-1-1V35c0-0.6,0.4-1,1-1s1,0.4,1,1v9.6C63.4,45.2,63,45.6,62.4,45.6z"/>
			</g>
		</g>
		<g>
			<g>
				<path fill="#808080" d="M37.6,45.6c-0.6,0-1-0.4-1-1V35c0-0.6,0.4-1,1-1s1,0.4,1,1v9.6C38.6,45.2,38.1,45.6,37.6,45.6z"/>
			</g>
		</g>
		<g>
			<g>
				<g>
					<g>
						<circle fill="#808080" cx="40.7" cy="31.7" r="0.8"/>
					</g>
				</g>
			</g>
			<g>
				<g>
					<g>
						<circle fill="#808080" cx="45.4" cy="31.7" r="0.8"/>
					</g>
				</g>
			</g>
			<g>
				<g>
					<g>
						<circle fill="#808080" cx="50.1" cy="31.7" r="0.8"/>
					</g>
				</g>
			</g>
			<g>
				<g>
					<g>
						<circle fill="#808080" cx="54.7" cy="31.7" r="0.8"/>
					</g>
				</g>
			</g>
			<g>
				<g>
					<g>
						<circle fill="#808080" cx="59.4" cy="31.7" r="0.8"/>
					</g>
				</g>
			</g>
		</g>
		<g>
			<g>
				<path fill="#808080" d="M41,46c-0.6,0-1-0.4-1-1v-4c0-0.6,0.4-1,1-1s1,0.4,1,1v4C42,45.6,41.6,46,41,46z"/>
			</g>
		</g>
		<g>
			<g>
				<path fill="#808080" d="M45,46c-0.6,0-1-0.4-1-1v-4c0-0.6,0.4-1,1-1s1,0.4,1,1v4C46,45.6,45.6,46,45,46z"/>
			</g>
		</g>
		<g>
			<g>
				<path fill="#808080" d="M50,46c-0.6,0-1-0.4-1-1v-4c0-0.6,0.4-1,1-1s1,0.4,1,1v4C51,45.6,50.6,46,50,46z"/>
			</g>
		</g>
		<g>
			<g>
				<path fill="#808080" d="M55,46c-0.6,0-1-0.4-1-1v-4c0-0.6,0.4-1,1-1s1,0.4,1,1v4C56,45.6,55.6,46,55,46z"/>
			</g>
		</g>
		<g>
			<g>
				<path fill="#808080" d="M59,46c-0.6,0-1-0.4-1-1v-4c0-0.6,0.4-1,1-1s1,0.4,1,1v4C60,45.6,59.6,46,59,46z"/>
			</g>
		</g>
		<g>
			<g>
				<path fill="#808080" d="M64.7,60H35.6c-0.6,0-1-0.4-1-1V45c0-0.6,0.4-1,1-1h29.1c0.6,0,1,0.4,1,1l0,14c0,0.3-0.1,0.5-0.3,0.7
					C65.3,59.9,65,60,64.7,60z M36.6,58h27.1l0-12H36.6V58z"/>
			</g>
		</g>
		<g>
			<g>
				<path fill="#808080" d="M59.8,56c-0.2,0-0.4,0-0.5-0.1L50,50.2l-9.3,5.7c-0.5,0.3-1.1,0.1-1.4-0.3c-0.3-0.5-0.1-1.1,0.3-1.4
					l9.8-6c0.3-0.2,0.7-0.2,1,0l9.8,6c0.5,0.3,0.6,0.9,0.3,1.4C60.5,55.8,60.1,56,59.8,56z"/>
			</g>
		</g>
		<g>
			<g>
				<path fill="#808080" d="M59.8,59.7c-0.6,0-1-0.4-1-1v-3.4H41.4v3.4c0,0.6-0.4,1-1,1s-1-0.4-1-1v-4.4c0-0.6,0.4-1,1-1h19.4
					c0.6,0,1,0.4,1,1v4.4C60.8,59.2,60.4,59.7,59.8,59.7z"/>
			</g>
		</g>
	</g>
	<g>
		<g>
			<path fill="#808080" d="M69,89.4c-0.6,0-1-0.4-1-1V60.5H32v27.9c0,0.6-0.4,1-1,1s-1-0.4-1-1V59.5c0-0.6,0.4-1,1-1h38
				c0.6,0,1,0.4,1,1v28.9C70,89,69.6,89.4,69,89.4z"/>
		</g>
	</g>
	<g>
		<g>
			<path fill="#808080" d="M97,89.4H3c-0.6,0-1-0.4-1-1s0.4-1,1-1h94c0.6,0,1,0.4,1,1S97.6,89.4,97,89.4z"/>
		</g>
	</g>
	<g>
		<g>
			<g>
				
					<path fill="#808080" stroke="#000000" stroke-width="2" stroke-linecap="round" stroke-linejoin="round" stroke-miterlimit="10" d="
					M69,88.2"/>
			</g>
		</g>
		<g>
			<g>
				
					<path fill="#808080" stroke="#000000" stroke-width="2" stroke-linecap="round" stroke-linejoin="round" stroke-miterlimit="10" d="
					M84.3,88.2"/>
			</g>
		</g>
		<g>
			<g>
				<g>
					<path fill="#808080" d="M84.3,64.6H69c-0.6,0-1-0.4-1-1s0.4-1,1-1h15.3c0.6,0,1,0.4,1,1S84.9,64.6,84.3,64.6z"/>
				</g>
			</g>
			<g>
				<g>
					<path fill="#808080" d="M96.7,89.1c-0.6,0-1-0.4-1-1V60.4H85.3v27.6c0,0.6-0.4,1-1,1s-1-0.4-1-1V59.4c0-0.6,0.4-1,1-1h12.3
						c0.6,0,1,0.4,1,1v28.6C97.7,88.6,97.2,89.1,96.7,89.1z"/>
				</g>
			</g>
		</g>
	</g>
	<g>
		<g>
			<g>
				<g>
					<path fill="#808080" d="M30.3,64.6H16c-0.6,0-1-0.4-1-1s0.4-1,1-1h14.3c0.6,0,1,0.4,1,1S30.9,64.6,30.3,64.6z"/>
				</g>
			</g>
			<g>
				<g>
					<path fill="#808080" d="M16,89.1c-0.6,0-1-0.4-1-1V60.4H4.7v27.6c0,0.6-0.4,1-1,1s-1-0.4-1-1V59.4c0-0.6,0.4-1,1-1H16
						c0.6,0,1,0.4,1,1v28.6C17,88.6,16.6,89.1,16,89.1z"/>
				</g>
			</g>
			<g>
				<g>
					
						<path fill="#808080" stroke="#000000" stroke-width="2" stroke-linecap="round" stroke-linejoin="round" stroke-miterlimit="10" d="
						M16,88.1"/>
				</g>
			</g>
			<g>
				<g>
					
						<path fill="#808080" stroke="#000000" stroke-width="2" stroke-linecap="round" stroke-linejoin="round" stroke-miterlimit="10" d="
						M3.7,88.1"/>
				</g>
			</g>
		</g>
	</g>
	<g>
		<g>
			<path fill="#808080" d="M57,89c-0.6,0-1-0.4-1-1V74.9c0-2.5-2-5.2-5-5.2c-2.7,0-5,2.3-5,5.1V88c0,0.6-0.4,1-1,1s-1-0.4-1-1V74.8
				c0-3.9,3.2-7.1,7-7.1s7,3.3,7,7.2V88C58,88.6,57.6,89,57,89z"/>
		</g>
	</g>
	<g>
		<g>
			<path fill="#808080" d="M41,55c-0.6,0-1-0.4-1-1v-8c0-0.6,0.4-1,1-1s1,0.4,1,1v8C42,54.6,41.6,55,41,55z"/>
		</g>
	</g>
	<g>
		<g>
			<path fill="#808080" d="M47,51c-0.6,0-1-0.4-1-1v-4c0-0.6,0.4-1,1-1s1,0.4,1,1v4C48,50.6,47.6,51,47,51z"/>
		</g>
	</g>
	<g>
		<g>
			<path fill="#808080" d="M54,52c-0.6,0-1-0.4-1-1v-5c0-0.6,0.4-1,1-1s1,0.4,1,1v5C55,51.6,54.6,52,54,52z"/>
		</g>
	</g>
	<g>
		<g>
			<path fill="#808080" d="M60,55c-0.6,0-1-0.4-1-1v-8c0-0.6,0.4-1,1-1s1,0.4,1,1v8C61,54.6,60.6,55,60,55z"/>
		</g>
	</g>
	<g>
		<g>
			<path fill="#808080" d="M94.1,60.4h-7.1c-2,0-3.6-1.6-3.6-3.6s1.6-3.6,3.6-3.6h7.1c2,0,3.6,1.6,3.6,3.6S96.1,60.4,94.1,60.4z
				 M86.9,55.2c-0.9,0-1.6,0.7-1.6,1.6s0.7,1.6,1.6,1.6h7.1c0.9,0,1.6-0.7,1.6-1.6s-0.7-1.6-1.6-1.6H86.9z"/>
		</g>
	</g>
	<g>
		<g>
			<path fill="#808080" d="M13.4,60.1H6.3c-2,0-3.6-1.6-3.6-3.6s1.6-3.6,3.6-3.6h7.1c2,0,3.6,1.6,3.6,3.6S15.4,60.1,13.4,60.1z
				 M6.3,54.9c-0.9,0-1.6,0.7-1.6,1.6s0.7,1.6,1.6,1.6h7.1c0.9,0,1.6-0.7,1.6-1.6s-0.7-1.6-1.6-1.6H6.3z"/>
		</g>
	</g>
	<g>
		<g>
			<path fill="#808080" d="M50,23c-0.6,0-1-0.4-1-1V12c0-0.6,0.4-1,1-1s1,0.4,1,1v10C51,22.6,50.6,23,50,23z"/>
		</g>
	</g>
	<g>
		<g>
			<path fill="#808080" d="M46,24c-0.6,0-1-0.4-1-1v-6c0-0.6,0.4-1,1-1s1,0.4,1,1v6C47,23.6,46.6,24,46,24z"/>
		</g>
	</g>
	<g>
		<g>
			<path fill="#808080" d="M54,23c-0.6,0-1-0.4-1-1v-5c0-0.6,0.4-1,1-1s1,0.4,1,1v5C55,22.6,54.6,23,54,23z"/>
		</g>
	</g>
	<g>
		<g>
			<path fill="#808080" d="M56,17H44c-0.6,0-1-0.4-1-1s0.4-1,1-1h12c0.6,0,1,0.4,1,1S56.6,17,56,17z"/>
		</g>
	</g>
	<g>
		<g>
			<path fill="#808080" d="M91,55c-0.6,0-1-0.4-1-1v-2c0-0.6,0.4-1,1-1s1,0.4,1,1v2C92,54.6,91.6,55,91,55z"/>
		</g>
	</g>
	<g>
		<g>
			<path fill="#808080" d="M10,55c-0.6,0-1-0.4-1-1v-3c0-0.6,0.4-1,1-1s1,0.4,1,1v3C11,54.6,10.6,55,10,55z"/>
		</g>
	</g>
	<g>
		<g>
			<g>
				<g>
					<circle fill="#808080" cx="63.1" cy="64.8" r="1.3"/>
				</g>
			</g>
		</g>
		<g>
			<g>
				<g>
					<circle fill="#808080" cx="63.1" cy="71.1" r="1.3"/>
				</g>
			</g>
		</g>
		<g>
			<g>
				<g>
					<circle fill="#808080" cx="63.1" cy="77.4" r="1.3"/>
				</g>
			</g>
		</g>
		<g>
			<g>
				<g>
					<circle fill="#808080" cx="63.1" cy="83.8" r="1.3"/>
				</g>
			</g>
		</g>
	</g>
	<g>
		<g>
			<g>
				<g>
					<circle fill="#808080" cx="91.1" cy="64.8" r="1.3"/>
				</g>
			</g>
		</g>
		<g>
			<g>
				<g>
					<circle fill="#808080" cx="91.1" cy="71.1" r="1.3"/>
				</g>
			</g>
		</g>
		<g>
			<g>
				<g>
					<circle fill="#808080" cx="91.1" cy="77.4" r="1.3"/>
				</g>
			</g>
		</g>
		<g>
			<g>
				<g>
					<circle fill="#808080" cx="91.1" cy="83.8" r="1.3"/>
				</g>
			</g>
		</g>
	</g>
	<g>
		<g>
			<g>
				<g>
					<circle fill="#808080" cx="10.1" cy="64.8" r="1.3"/>
				</g>
			</g>
		</g>
		<g>
			<g>
				<g>
					<circle fill="#808080" cx="10.1" cy="71.1" r="1.3"/>
				</g>
			</g>
		</g>
		<g>
			<g>
				<g>
					<circle fill="#808080" cx="10.1" cy="77.4" r="1.3"/>
				</g>
			</g>
		</g>
		<g>
			<g>
				<g>
					<circle fill="#808080" cx="10.1" cy="83.8" r="1.3"/>
				</g>
			</g>
		</g>
	</g>
	<g>
		<g>
			<g>
				<g>
					<circle fill="#808080" cx="74.1" cy="69.1" r="1.3"/>
				</g>
			</g>
		</g>
		<g>
			<g>
				<g>
					<circle fill="#808080" cx="74.1" cy="76.4" r="1.3"/>
				</g>
			</g>
		</g>
		<g>
			<g>
				<g>
					<circle fill="#808080" cx="74.1" cy="83.8" r="1.3"/>
				</g>
			</g>
		</g>
	</g>
	<g>
		<g>
			<g>
				<g>
					<circle fill="#808080" cx="79.1" cy="69.1" r="1.3"/>
				</g>
			</g>
		</g>
		<g>
			<g>
				<g>
					<circle fill="#808080" cx="79.1" cy="76.4" r="1.3"/>
				</g>
			</g>
		</g>
		<g>
			<g>
				<g>
					<circle fill="#808080" cx="79.1" cy="83.8" r="1.3"/>
				</g>
			</g>
		</g>
	</g>
	<g>
		<g>
			<g>
				<g>
					<circle fill="#808080" cx="21.1" cy="69.1" r="1.3"/>
				</g>
			</g>
		</g>
		<g>
			<g>
				<g>
					<circle fill="#808080" cx="21.1" cy="76.4" r="1.3"/>
				</g>
			</g>
		</g>
		<g>
			<g>
				<g>
					<circle fill="#808080" cx="21.1" cy="83.8" r="1.3"/>
				</g>
			</g>
		</g>
	</g>
	<g>
		<g>
			<g>
				<g>
					<circle fill="#808080" cx="26.1" cy="69.1" r="1.3"/>
				</g>
			</g>
		</g>
		<g>
			<g>
				<g>
					<circle fill="#808080" cx="26.1" cy="76.4" r="1.3"/>
				</g>
			</g>
		</g>
		<g>
			<g>
				<g>
					<circle fill="#808080" cx="26.1" cy="83.8" r="1.3"/>
				</g>
			</g>
		</g>
	</g>
	<g>
		<g>
			<g>
				<g>
					<circle fill="#808080" cx="38.1" cy="64.8" r="1.3"/>
				</g>
			</g>
		</g>
		<g>
			<g>
				<g>
					<circle fill="#808080" cx="44.1" cy="64.8" r="1.3"/>
				</g>
			</g>
		</g>
		<g>
			<g>
				<g>
					<circle fill="#808080" cx="51.1" cy="64.8" r="1.3"/>
				</g>
			</g>
		</g>
		<g>
			<g>
				<g>
					<circle fill="#808080" cx="57.1" cy="64.8" r="1.3"/>
				</g>
			</g>
		</g>
		<g>
			<g>
				<g>
					<circle fill="#808080" cx="38.1" cy="71.1" r="1.3"/>
				</g>
			</g>
		</g>
		<g>
			<g>
				<g>
					<circle fill="#808080" cx="38.1" cy="77.4" r="1.3"/>
				</g>
			</g>
		</g>
		<g>
			<g>
				<g>
					<circle fill="#808080" cx="38.1" cy="83.8" r="1.3"/>
				</g>
			</g>
		</g>
	</g>
</g>
</svg>
