<?xml version="1.0" standalone="no"?>
<!DOCTYPE svg PUBLIC "-//W3C//DTD SVG 20010904//EN"
 "http://www.w3.org/TR/2001/REC-SVG-20010904/DTD/svg10.dtd">
<svg version="1.0" xmlns="http://www.w3.org/2000/svg"
 width="700.000000pt" height="700.000000pt" viewBox="0 0 700.000000 700.000000"
 preserveAspectRatio="xMidYMid meet">
<metadata>
Created by potrace 1.11, written by Peter Selinger 2001-2013
</metadata>
<g transform="translate(0.000000,700.000000) scale(0.100000,-0.100000)"
fill="#000000" stroke="none">
<path d="M2015 5330 l0 -1360 -942 0 c-519 0 -944 -3 -944 -7 -7 -45 -3 -58
21 -61 34 -5 84 -44 107 -84 89 -152 84 -146 142 -171 58 -25 58 -26 280 -265
62 -66 115 -115 130 -119 39 -9 127 -71 161 -111 17 -20 32 -52 36 -72 7 -47
20 -75 57 -134 29 -44 32 -56 33 -132 0 -78 3 -89 43 -168 40 -80 47 -88 120
-135 42 -28 97 -72 121 -98 35 -37 60 -52 105 -67 33 -10 89 -36 125 -59 117
-72 194 -114 233 -127 l39 -12 80 83 c77 79 80 85 100 163 23 92 55 161 90
192 12 12 55 32 93 44 39 12 80 29 93 36 19 12 26 12 50 1 42 -22 96 -29 223
-32 139 -3 178 -14 215 -63 16 -20 34 -43 41 -50 7 -7 16 -19 20 -26 5 -7 35
-30 68 -50 33 -21 90 -69 127 -106 55 -57 79 -93 136 -207 38 -76 92 -182 120
-235 28 -53 56 -115 63 -138 9 -31 21 -45 46 -57 41 -19 84 -72 143 -173 55
-97 61 -103 147 -161 84 -57 108 -93 100 -152 -4 -26 0 -48 8 -61 8 -12 17
-52 20 -90 6 -71 10 -79 95 -189 16 -21 39 -68 51 -105 35 -105 60 -138 109
-146 43 -7 134 -48 145 -66 6 -10 52 -23 116 -34 19 -3 66 -27 105 -52 l69
-45 121 4 c138 5 160 -1 226 -61 43 -39 78 -62 97 -62 5 0 19 16 31 35 12 20
35 39 55 47 68 24 64 75 -26 342 l-72 211 -1 120 c0 130 12 189 67 320 39 92
124 222 189 289 29 29 86 74 126 100 40 25 96 69 125 96 51 50 161 122 280
185 106 55 229 136 261 170 12 12 42 47 68 76 25 30 78 76 116 104 39 27 78
63 88 80 33 55 88 98 191 147 56 26 106 48 110 48 4 0 35 11 68 24 61 25 79
48 63 79 -13 25 -2 53 44 114 46 60 50 92 23 174 -30 89 -9 231 44 292 26 31
27 36 26 143 l0 111 -36 34 c-21 20 -53 71 -77 122 -22 48 -45 87 -51 87 -7 0
-11 22 -11 53 0 50 -3 55 -65 126 -36 41 -65 77 -66 80 0 3 -2 13 -4 21 -22
88 -32 216 -40 525 -3 110 -8 225 -11 255 -5 60 -22 120 -32 120 -4 1 -40 3
-80 5 -40 2 -99 11 -130 20 -52 15 -203 87 -311 148 l-44 25 -38 -20 c-47 -24
-103 -31 -146 -17 -25 8 -37 7 -55 -5 -13 -9 -59 -20 -103 -25 -95 -11 -125
-21 -177 -63 -49 -38 -88 -35 -157 16 -43 32 -51 34 -81 26 -28 -8 -43 -5 -84
14 -28 13 -54 22 -58 20 -4 -3 -16 -25 -27 -49 -24 -55 -58 -63 -67 -16 -8 39
-24 44 -70 20 -48 -24 -50 -24 -91 7 -18 14 -48 31 -67 39 -33 14 -35 14 -68
-19 -42 -42 -74 -54 -82 -29 -3 10 -33 47 -66 81 -55 58 -64 64 -103 64 -23 1
-58 -5 -78 -12 -31 -11 -46 -11 -100 3 -35 8 -84 18 -109 21 -25 4 -73 11
-108 17 l-63 12 -26 53 c-27 58 -57 76 -108 63 -16 -4 -47 -12 -68 -17 -29 -8
-47 -7 -70 3 -30 13 -108 80 -136 117 -12 16 -21 359 -25 955 l-1 193 -735 0
-735 0 0 -1360z"/>
</g>
</svg>
