<?xml version="1.0" encoding="utf-8"?>
<svg viewBox="181.8740997314453 523.6495361328125 115.07063293457031 117.29193115234375" width="115.07063293457031" height="117.29193115234375" xmlns="http://www.w3.org/2000/svg">
  <g transform="matrix(1.3333330154418945, 0, 0, -1.3333330154418945, 289.27273783537385, 599.6055165277795)" id="g32">
    <path id="path34" style="fill-opacity: 1; fill-rule: nonzero; stroke: none; fill: rgb(33, 150, 243);" d="m 0,0 c -0.883,-10.026 -16.867,-15.45 -22.116,-17.231 -6.575,-2.223 -12.084,-5.74 -15.148,-7.938 l -0.353,0.26 -0.122,-0.115 c -3.068,2.173 -8.532,5.626 -14.93,7.792 -5.254,1.782 -21.245,7.205 -22.129,17.231 -0.468,5.344 1.649,11.033 3.696,16.535 1.945,5.226 3.782,10.161 3.093,14.42 -0.806,4.99 -1.882,8.26 -2.613,10.077 l 3.659,4.091 -1.473,3.641 2.868,3.005 h 56.336 l 2.875,-3.003 -1.488,-3.642 3.675,-4.092 C -4.907,39.211 -5.988,35.94 -6.793,30.953 -7.479,26.696 -5.643,21.764 -3.698,16.542 -1.648,11.037 0.471,5.346 0,0 m -1.66,30.125 c 1.119,6.934 2.816,10.075 2.825,10.091 l 0.924,1.628 -3.888,4.33 1.531,3.749 -6.743,7.044 h -60.782 l -6.722,-7.042 1.516,-3.75 -3.844,-4.325 0.878,-1.611 c 0.017,-0.031 1.701,-3.176 2.822,-10.115 0.47,-2.902 -1.134,-7.213 -2.832,-11.776 -2.144,-5.761 -4.574,-12.291 -4.003,-18.805 1.182,-13.405 19.59,-19.648 25.64,-21.7 7.048,-2.386 12.892,-6.53 15.077,-8.202 0.196,-0.15 0.504,-0.385 0.949,-0.526 l 0.145,-0.115 0.558,-0.001 c 0.024,-10e-4 0.048,-10e-4 0.073,-10e-4 h 0.001 0.275 0.003 c 0.124,0 0.241,0.008 0.353,0.023 l 0.225,0.008 0.073,0.051 c 0.519,0.135 0.865,0.402 1.041,0.537 1.686,1.301 7.759,5.739 15.117,8.227 C -14.401,-20.104 4,-13.86 5.18,-0.457 5.754,6.059 3.321,12.592 1.175,18.356 -0.523,22.917 -2.127,27.225 -1.66,30.125"/>
  </g>
  <g transform="matrix(1.3333330154418945, 0, 0, -1.3333330154418945, 213.24994915723804, 582.0833852887155)" id="g36">
    <path id="path38" style="fill-opacity: 1; fill-rule: nonzero; stroke: none; fill: rgb(33, 150, 243);" d="M 0,0 C 0,0 1.484,12.425 1.602,13.396 1.693,12.632 3.281,0 3.281,0 Z m -0.524,21.795 -5.704,-36.552 h 4.357 L -0.28,-4.29 H 3.619 L 5.271,-14.757 H 9.938 L 4.082,21.795 Z"/>
  </g>
  <g transform="matrix(1.3333330154418945, 0, 0, -1.3333330154418945, 272.93220624949026, 553.0235167288483)" id="g40">
    <path id="path42" style="fill-opacity: 1; fill-rule: nonzero; stroke: none; fill: rgb(33, 150, 243);" d="M 0,0 H -4.671 L -7.153,-9.67 -9.497,0 h -5.093 l 4.937,-17.233 -5.74,-19.319 h 4.667 l 3.239,12.608 3.136,-12.608 h 5.143 l -5.793,19.944 z"/>
  </g>
  <g transform="matrix(1.3333330154418945, 0, 0, -1.3333330154418945, 230.28381960776463, 547.5729971950205)" id="g44">
    <path id="path46" style="fill-opacity: 1; fill-rule: nonzero; stroke: none; fill: rgb(33, 150, 243);" d="m 0,0 h 4.464 v -49.181 h 4.82 V 0 h 4.518 V 4.443 H 0 Z"/>
  </g>
</svg>